<svg width="40" height="40" viewBox="0 0 40 40" fill="none" xmlns="http://www.w3.org/2000/svg">
<path d="M7.68934 25.2747L7.69967 25.2854L6.61814 26.3248C7.69967 25.2854 7.69969 25.2854 7.69974 25.2855L7.70008 25.2858L7.70156 25.2874L7.70768 25.2937L7.73236 25.3194L7.82977 25.4204C7.91538 25.5091 8.04143 25.6396 8.20256 25.8057C8.52484 26.1381 8.98727 26.6134 9.54691 27.1838C10.6668 28.3254 12.1732 29.8454 13.7233 31.3636C15.2772 32.8855 16.8593 34.3901 18.135 35.508C18.7761 36.0699 19.3147 36.5118 19.7204 36.8055C19.7584 36.8331 19.7942 36.8585 19.8278 36.882C19.8602 36.8592 19.8946 36.8346 19.9311 36.808C20.3338 36.5147 20.8683 36.0732 21.5048 35.5115C22.7711 34.3938 24.3409 32.8896 25.8826 31.3677C27.4204 29.8496 28.9145 28.3297 30.0252 27.1882C30.5802 26.6178 31.0388 26.1426 31.3584 25.8102C31.5182 25.644 31.6432 25.5136 31.7281 25.4249L31.8247 25.3239L31.8492 25.2983L31.8552 25.2919L31.8567 25.2904L31.857 25.29C31.8571 25.29 31.8571 25.2899 32.943 26.3248L31.8571 25.2899L31.8655 25.2812L31.874 25.2725C34.7762 22.3242 34.908 17.2487 31.8823 14.223C28.9429 11.2837 24.2416 11.178 21.1768 13.9063L21.1767 13.9064C21.1766 13.9065 21.1762 13.9069 21.1755 13.9075L21.1717 13.911L21.1581 13.9238C21.1464 13.9349 21.1321 13.9487 21.1149 13.9657C21.0897 13.9904 21.0661 14.014 21.0392 14.0408C21.0261 14.0539 21.0121 14.0678 20.9969 14.083C20.9591 14.1205 20.9037 14.1755 20.8518 14.2234C20.8288 14.2446 20.7805 14.2886 20.7213 14.3347C20.6944 14.3556 20.6327 14.4027 20.5495 14.4518C20.5079 14.4763 20.4335 14.5177 20.3355 14.5564C20.2557 14.588 20.0524 14.6624 19.7806 14.6624L7.68934 25.2747ZM7.68934 25.2747L7.6788 25.2641C4.62989 22.2152 4.62989 17.2719 7.6788 14.223C10.6182 11.2837 15.3194 11.178 18.3842 13.9063C18.3842 13.9063 18.3846 13.9067 18.3855 13.9075L18.3894 13.911L18.403 13.9239C18.4147 13.935 18.429 13.9488 18.4462 13.9657C18.4714 13.9905 18.4951 14.0141 18.522 14.0409C18.5351 14.054 18.549 14.0679 18.5643 14.0831C18.6021 14.1207 18.6575 14.1756 18.7094 14.2235C18.7324 14.2447 18.7807 14.2887 18.8399 14.3348C18.8668 14.3557 18.9285 14.4028 19.0117 14.4518C19.0533 14.4763 19.1276 14.5177 19.2257 14.5565C19.3054 14.588 19.5087 14.6624 19.7805 14.6624L7.68934 25.2747ZM19.4494 37.1155C19.4498 37.1148 19.4599 37.1097 19.4788 37.1026C19.4585 37.1127 19.4491 37.1163 19.4494 37.1155ZM20.1779 37.1018C20.1968 37.1089 20.2069 37.1139 20.2073 37.1147C20.2076 37.1154 20.1982 37.1119 20.1779 37.1018Z" stroke="#191414" stroke-width="3"/>
<path d="M7.68934 25.2747L7.69967 25.2854L6.61814 26.3248C7.69967 25.2854 7.69969 25.2854 7.69974 25.2855L7.70008 25.2858L7.70156 25.2874L7.70768 25.2937L7.73236 25.3194L7.82977 25.4204C7.91538 25.5091 8.04143 25.6396 8.20256 25.8057C8.52484 26.1381 8.98727 26.6134 9.54691 27.1838C10.6668 28.3254 12.1732 29.8454 13.7233 31.3636C15.2772 32.8855 16.8593 34.3901 18.135 35.508C18.7761 36.0699 19.3147 36.5118 19.7204 36.8055C19.7584 36.8331 19.7942 36.8585 19.8278 36.882C19.8602 36.8592 19.8946 36.8346 19.9311 36.808C20.3338 36.5147 20.8683 36.0732 21.5048 35.5115C22.7711 34.3938 24.3409 32.8896 25.8826 31.3677C27.4204 29.8496 28.9145 28.3297 30.0252 27.1882C30.5802 26.6178 31.0388 26.1426 31.3584 25.8102C31.5182 25.644 31.6432 25.5136 31.7281 25.4249L31.8247 25.3239L31.8492 25.2983L31.8552 25.2919L31.8567 25.2904L31.857 25.29C31.8571 25.29 31.8571 25.2899 32.943 26.3248L31.8571 25.2899L31.8655 25.2812L31.874 25.2725C34.7762 22.3242 34.908 17.2487 31.8823 14.223C28.9429 11.2837 24.2416 11.178 21.1768 13.9063L21.1767 13.9064C21.1766 13.9065 21.1762 13.9069 21.1755 13.9075L21.1717 13.911L21.1581 13.9238C21.1464 13.9349 21.1321 13.9487 21.1149 13.9657C21.0897 13.9904 21.0661 14.014 21.0392 14.0408C21.0261 14.0539 21.0121 14.0678 20.9969 14.083C20.9591 14.1205 20.9037 14.1755 20.8518 14.2234C20.8288 14.2446 20.7805 14.2886 20.7213 14.3347C20.6944 14.3556 20.6327 14.4027 20.5495 14.4518C20.5079 14.4763 20.4335 14.5177 20.3355 14.5564C20.2557 14.588 20.0524 14.6624 19.7806 14.6624L7.68934 25.2747ZM7.68934 25.2747L7.6788 25.2641C4.62989 22.2152 4.62989 17.2719 7.6788 14.223C10.6182 11.2837 15.3194 11.178 18.3842 13.9063C18.3842 13.9063 18.3846 13.9067 18.3855 13.9075L18.3894 13.911L18.403 13.9239C18.4147 13.935 18.429 13.9488 18.4462 13.9657C18.4714 13.9905 18.4951 14.0141 18.522 14.0409C18.5351 14.054 18.549 14.0679 18.5643 14.0831C18.6021 14.1207 18.6575 14.1756 18.7094 14.2235C18.7324 14.2447 18.7807 14.2887 18.8399 14.3348C18.8668 14.3557 18.9285 14.4028 19.0117 14.4518C19.0533 14.4763 19.1276 14.5177 19.2257 14.5565C19.3054 14.588 19.5087 14.6624 19.7805 14.6624L7.68934 25.2747ZM19.4494 37.1155C19.4498 37.1148 19.4599 37.1097 19.4788 37.1026C19.4585 37.1127 19.4491 37.1163 19.4494 37.1155ZM20.1779 37.1018C20.1968 37.1089 20.2069 37.1139 20.2073 37.1147C20.2076 37.1154 20.1982 37.1119 20.1779 37.1018Z" stroke="#F1F1F1" stroke-width="3"/>
</svg>
