<svg width="30" height="31" viewBox="0 0 30 31" fill="none" xmlns="http://www.w3.org/2000/svg">
<path d="M25 6.84823C25 6.10362 25.6036 5.5 26.3482 5.5H26.5609C27.3055 5.5 27.9091 6.10362 27.9091 6.84823V24.1518C27.9091 24.8964 27.3055 25.5 26.5609 25.5H26.3482C25.6036 25.5 25 24.8964 25 24.1518V6.84823Z" fill="#191414"/>
<path d="M25 6.84823C25 6.10362 25.6036 5.5 26.3482 5.5H26.5609C27.3055 5.5 27.9091 6.10362 27.9091 6.84823V24.1518C27.9091 24.8964 27.3055 25.5 26.5609 25.5H26.3482C25.6036 25.5 25 24.8964 25 24.1518V6.84823Z" fill="#F1F1F1"/>
<path d="M24.75 16.799L11.25 24.5933C10.25 25.1706 9 24.4489 9 23.2942L9 7.70577C9 6.55107 10.25 5.82938 11.25 6.40673L24.75 14.201C25.75 14.7783 25.75 16.2217 24.75 16.799Z" stroke="#191414" stroke-width="3"/>
<path d="M24.75 16.799L11.25 24.5933C10.25 25.1706 9 24.4489 9 23.2942L9 7.70577C9 6.55107 10.25 5.82938 11.25 6.40673L24.75 14.201C25.75 14.7783 25.75 16.2217 24.75 16.799Z" stroke="#F1F1F1" stroke-width="3"/>
</svg>
