<svg width="30" height="31" viewBox="0 0 30 31" fill="none" xmlns="http://www.w3.org/2000/svg">
<path d="M5 24.1518C5 24.8964 4.39638 25.5 3.65177 25.5L3.43914 25.5C2.69453 25.5 2.09091 24.8964 2.09091 24.1518L2.09091 6.84823C2.09091 6.10362 2.69454 5.5 3.43914 5.5L3.65177 5.5C4.39638 5.5 5 6.10362 5 6.84823L5 24.1518Z" fill="#191414"/>
<path d="M5 24.1518C5 24.8964 4.39638 25.5 3.65177 25.5L3.43914 25.5C2.69453 25.5 2.09091 24.8964 2.09091 24.1518L2.09091 6.84823C2.09091 6.10362 2.69454 5.5 3.43914 5.5L3.65177 5.5C4.39638 5.5 5 6.10362 5 6.84823L5 24.1518Z" fill="#F1F1F1"/>
<path d="M5.25 14.201L18.75 6.40673C19.75 5.82938 21 6.55107 21 7.70577L21 23.2942C21 24.4489 19.75 25.1706 18.75 24.5933L5.25 16.799C4.25 16.2217 4.25 14.7783 5.25 14.201Z" stroke="#191414" stroke-width="3"/>
<path d="M5.25 14.201L18.75 6.40673C19.75 5.82938 21 6.55107 21 7.70577L21 23.2942C21 24.4489 19.75 25.1706 18.75 24.5933L5.25 16.799C4.25 16.2217 4.25 14.7783 5.25 14.201Z" stroke="#F1F1F1" stroke-width="3"/>
</svg>
