<svg width="21" height="21" viewBox="0 0 21 21" fill="none" xmlns="http://www.w3.org/2000/svg">
<path fill-rule="evenodd" clip-rule="evenodd" d="M2.07239 10.6067C2.07239 10.5102 2.15063 10.4319 2.24714 10.4319L10.3105 10.4319L10.3105 2.36855C10.3105 2.27204 10.3888 2.19379 10.4853 2.19379C10.5818 2.1938 10.66 2.27204 10.66 2.36855L10.66 10.4319L18.7234 10.4319C18.8199 10.4319 18.8982 10.5102 18.8982 10.6067C18.8982 10.7032 18.8199 10.7814 18.7234 10.7814L10.66 10.7814L10.66 18.8448C10.66 18.9413 10.5818 19.0196 10.4853 19.0196C10.3888 19.0196 10.3105 18.9413 10.3105 18.8448L10.3105 10.7814L2.24714 10.7814C2.15063 10.7814 2.07239 10.7032 2.07239 10.6067Z" fill="#F1F1F1" stroke="#F1F1F1" stroke-width="2" stroke-linecap="round" stroke-linejoin="round"/>
</svg>
