<svg width="28" height="8" viewBox="0 0 28 8" fill="none" xmlns="http://www.w3.org/2000/svg">
<path d="M3.88889 1.50006C5.20824 1.50006 6.27778 2.5696 6.27778 3.88894C6.27778 5.20829 5.20824 6.27783 3.88889 6.27783C2.56954 6.27783 1.5 5.20829 1.5 3.88894C1.5 2.5696 2.56954 1.50006 3.88889 1.50006ZM14 1.50005C15.3193 1.50005 16.3889 2.5696 16.3889 3.88894C16.3889 5.20829 15.3193 6.27783 14 6.27783C12.6807 6.27783 11.6111 5.20829 11.6111 3.88894C11.6111 2.5696 12.6807 1.50005 14 1.50005ZM24.1111 1.50005C25.4305 1.50005 26.5 2.5696 26.5 3.88894C26.5 5.20829 25.4305 6.27783 24.1111 6.27783C22.7918 6.27783 21.7222 5.20829 21.7222 3.88894C21.7222 2.5696 22.7918 1.50005 24.1111 1.50005Z" stroke="#F1F1F1" stroke-width="3"/>
</svg>
