<svg width="26" height="25" viewBox="0 0 26 25" fill="none" xmlns="http://www.w3.org/2000/svg">
<path d="M13.5561 4.59047C12.9485 4.59047 12.4561 5.08296 12.4561 5.69047C12.4561 6.29799 12.9485 6.79047 13.5561 6.79047V4.59047ZM24.7307 6.79047C25.3382 6.79047 25.8307 6.29799 25.8307 5.69047C25.8307 5.08296 25.3382 4.59047 24.7307 4.59047V6.79047ZM7.27034 14.019C6.66283 14.019 6.17034 14.5115 6.17034 15.119C6.17034 15.7266 6.66283 16.219 7.27034 16.219V14.019ZM24.7307 16.219C25.3382 16.219 25.8307 15.7266 25.8307 15.119C25.8307 14.5115 25.3382 14.019 24.7307 14.019V16.219ZM5.17511 22.4C4.56759 22.4 4.07511 22.8925 4.07511 23.5C4.07511 24.1075 4.56759 24.6 5.17511 24.6V22.4ZM24.7307 24.6C25.3382 24.6 25.8307 24.1075 25.8307 23.5C25.8307 22.8925 25.3382 22.4 24.7307 22.4V24.6ZM6.15824 5.65824L6.93606 6.43606C7.14235 6.22977 7.25824 5.94998 7.25824 5.65824C7.25824 5.3665 7.14235 5.08671 6.93606 4.88042L6.15824 5.65824ZM1.22218 9.03866C0.792606 9.46823 0.792606 10.1647 1.22218 10.5943C1.65176 11.0239 2.34824 11.0239 2.77782 10.5943L1.22218 9.03866ZM2.77782 0.722183C2.34824 0.292606 1.65176 0.292606 1.22218 0.722183C0.792606 1.15176 0.792606 1.84824 1.22218 2.27782L2.77782 0.722183ZM13.5561 6.79047H24.7307V4.59047H13.5561V6.79047ZM7.27034 16.219H24.7307V14.019H7.27034V16.219ZM5.17511 24.6H24.7307V22.4H5.17511V24.6ZM5.38042 4.88042L1.22218 9.03866L2.77782 10.5943L6.93606 6.43606L5.38042 4.88042ZM1.22218 2.27782L5.38042 6.43606L6.93606 4.88042L2.77782 0.722183L1.22218 2.27782Z" fill="#191414"/>
<path d="M13.5561 4.59047C12.9485 4.59047 12.4561 5.08296 12.4561 5.69047C12.4561 6.29799 12.9485 6.79047 13.5561 6.79047V4.59047ZM24.7307 6.79047C25.3382 6.79047 25.8307 6.29799 25.8307 5.69047C25.8307 5.08296 25.3382 4.59047 24.7307 4.59047V6.79047ZM7.27034 14.019C6.66283 14.019 6.17034 14.5115 6.17034 15.119C6.17034 15.7266 6.66283 16.219 7.27034 16.219V14.019ZM24.7307 16.219C25.3382 16.219 25.8307 15.7266 25.8307 15.119C25.8307 14.5115 25.3382 14.019 24.7307 14.019V16.219ZM5.17511 22.4C4.56759 22.4 4.07511 22.8925 4.07511 23.5C4.07511 24.1075 4.56759 24.6 5.17511 24.6V22.4ZM24.7307 24.6C25.3382 24.6 25.8307 24.1075 25.8307 23.5C25.8307 22.8925 25.3382 22.4 24.7307 22.4V24.6ZM6.15824 5.65824L6.93606 6.43606C7.14235 6.22977 7.25824 5.94998 7.25824 5.65824C7.25824 5.3665 7.14235 5.08671 6.93606 4.88042L6.15824 5.65824ZM1.22218 9.03866C0.792606 9.46823 0.792606 10.1647 1.22218 10.5943C1.65176 11.0239 2.34824 11.0239 2.77782 10.5943L1.22218 9.03866ZM2.77782 0.722183C2.34824 0.292606 1.65176 0.292606 1.22218 0.722183C0.792606 1.15176 0.792606 1.84824 1.22218 2.27782L2.77782 0.722183ZM13.5561 6.79047H24.7307V4.59047H13.5561V6.79047ZM7.27034 16.219H24.7307V14.019H7.27034V16.219ZM5.17511 24.6H24.7307V22.4H5.17511V24.6ZM5.38042 4.88042L1.22218 9.03866L2.77782 10.5943L6.93606 6.43606L5.38042 4.88042ZM1.22218 2.27782L5.38042 6.43606L6.93606 4.88042L2.77782 0.722183L1.22218 2.27782Z" fill="#F1F1F1"/>
</svg>
